<?xml version="1.0" encoding="UTF-8" standalone="no"?>
<svg
   xmlns:dc="http://purl.org/dc/elements/1.1/"
   xmlns:cc="http://creativecommons.org/ns#"
   xmlns:rdf="http://www.w3.org/1999/02/22-rdf-syntax-ns#"
   xmlns:svg="http://www.w3.org/2000/svg"
   xmlns="http://www.w3.org/2000/svg"
   width="1792"
   height="1792"
   viewBox="0 0 1792 1792"
   id="svg2"
   version="1.1">
  <metadata
     id="metadata10">
    <rdf:RDF>
      <cc:Work
         rdf:about="">
        <dc:format>image/svg+xml</dc:format>
        <dc:type
           rdf:resource="http://purl.org/dc/dcmitype/StillImage" />
        <dc:title></dc:title>
      </cc:Work>
    </rdf:RDF>
  </metadata>
  <defs
     id="defs8" />
  <path
     d="m 1144.7406,824.11475 q 0,-147.0111 -106.8973,-251.50817 -106.89745,-104.49706 -257.28528,-104.49706 -150.38788,0 -257.28521,104.49706 -106.89732,104.49707 -106.89732,251.50817 0,147.0111 106.89732,251.50815 106.89733,104.4971 257.28521,104.4971 150.38783,0 257.28528,-104.4971 106.8973,-104.49705 106.8973,-251.50815 z m 416.2086,661.15255 q 0,41.3221 -30.8905,71.5189 -30.8905,30.1969 -73.1617,30.1969 -43.897,0 -73.1616,-30.1969 l -278.8273,-271.7718 q -145.51045,98.5371 -324.35008,98.5371 -116.24577,0 -222.33019,-44.1033 Q 452.14341,1295.3449 375.32366,1220.25 298.50391,1145.1552 253.38755,1041.4528 208.27118,937.75035 208.27118,824.11475 q 0,-113.63561 45.11637,-217.33802 45.11636,-103.70242 121.93611,-178.79727 76.81975,-75.09485 182.90417,-119.19817 106.08442,-44.10332 222.33019,-44.10332 116.24573,0 222.33018,44.10332 106.0845,44.10332 182.9042,119.19817 76.8198,75.09485 121.9361,178.79727 45.1164,103.70241 45.1164,217.33802 0,174.824 -100.8005,317.06715 l 278.8272,272.5665 q 30.0776,29.4022 30.0776,71.5189 z"
     id="path4"
     style="fill:#eeeeee;fill-opacity:1" />
</svg>
